<?xml version="1.0" standalone="no"?><!DOCTYPE svg PUBLIC "-//W3C//DTD SVG 1.1//EN" "http://www.w3.org/Graphics/SVG/1.1/DTD/svg11.dtd"><svg width="100%" height="100%" viewBox="0 0 1280 800" version="1.1" xmlns="http://www.w3.org/2000/svg" xmlns:xlink="http://www.w3.org/1999/xlink" xml:space="preserve" style="fill-rule:evenodd;clip-rule:evenodd;stroke-linejoin:round;stroke-miterlimit:1.41421;"><path d="M332.152,593.738l-201.582,196.031l-201.587,-196.037l201.585,-196.023l201.584,196.029ZM-65.04,593.732l195.61,190.225l195.605,-190.219l-195.607,-190.217l-195.608,190.211Z" style="fill:url(#_Linear1);"/><path d="M332.157,207.496l-201.587,196.023l-201.587,-196.023l201.587,-196.024l201.587,196.024ZM-65.04,207.496l195.61,190.212l195.61,-190.212l-195.61,-190.212l-195.61,190.212Z" style="fill:url(#_Linear2);"/><path d="M332.157,400.614l-201.587,196.028l-201.587,-196.028l201.587,-196.024l201.587,196.024ZM-65.04,400.614l195.61,190.217l195.61,-190.217l-195.61,-190.212l-195.61,190.212Z" style="fill:url(#_Linear3);"/><path d="M261.161,595.816l-401.358,0l0,-390.402l401.358,0l0,390.402ZM-136.03,209.581l0,382.069l393.025,0l0,-382.069l-393.025,0Z" style="fill:url(#_Linear4);"/><path d="M636.767,400.613l-508.28,285.375l0,-570.737l508.28,285.362ZM132.654,678.87l495.602,-278.257l-495.602,-278.244l0,556.501Z" style="fill:url(#_Linear5);"/><path d="M331.25,762.789l-132.276,0l0,-693.838l132.276,0l0,693.838ZM203.141,73.118l0,685.505l123.943,0l0,-685.505l-123.943,0Z" style="fill:url(#_Linear6);"/><path d="M776.004,402.284l-250.073,73.565l-274.74,-73.565l274.741,-76.905l250.072,76.905ZM266.967,402.195l258.911,69.327l235.663,-69.327l-235.664,-72.473l-258.91,72.473Z" style="fill:url(#_Linear7);"/><path d="M-202.346,397.414l1395.26,13.08l89.15,-13.08l-1437.31,0l-47.099,0Z" style="fill:url(#_Linear8);fill-rule:nonzero;"/><defs><linearGradient id="_Linear1" x1="0" y1="0" x2="1" y2="0" gradientUnits="userSpaceOnUse" gradientTransform="matrix(401.059,0,0,389.996,-69.9611,593.738)"><stop offset="0%" style="stop-color:#ef797d;stop-opacity:1"/><stop offset="3%" style="stop-color:#ee7e7d;stop-opacity:1"/><stop offset="21%" style="stop-color:#d0dd2f;stop-opacity:1"/><stop offset="50%" style="stop-color:#23b8c5;stop-opacity:1"/><stop offset="65%" style="stop-color:#25b5a1;stop-opacity:1"/><stop offset="81%" style="stop-color:#36ae49;stop-opacity:1"/><stop offset="100%" style="stop-color:#36ae49;stop-opacity:1"/></linearGradient><linearGradient id="_Linear2" x1="0" y1="0" x2="1" y2="0" gradientUnits="userSpaceOnUse" gradientTransform="matrix(401.062,0,0,389.999,-69.9611,207.495)"><stop offset="0%" style="stop-color:#ef797d;stop-opacity:1"/><stop offset="3%" style="stop-color:#ee7e7d;stop-opacity:1"/><stop offset="21%" style="stop-color:#d0dd2f;stop-opacity:1"/><stop offset="50%" style="stop-color:#23b8c5;stop-opacity:1"/><stop offset="65%" style="stop-color:#25b5a1;stop-opacity:1"/><stop offset="81%" style="stop-color:#36ae49;stop-opacity:1"/><stop offset="100%" style="stop-color:#36ae49;stop-opacity:1"/></linearGradient><linearGradient id="_Linear3" x1="0" y1="0" x2="1" y2="0" gradientUnits="userSpaceOnUse" gradientTransform="matrix(401.062,0,0,389.999,-69.9611,400.618)"><stop offset="0%" style="stop-color:#36ae49;stop-opacity:1"/><stop offset="18%" style="stop-color:#36ae49;stop-opacity:1"/><stop offset="34%" style="stop-color:#25b5a1;stop-opacity:1"/><stop offset="50%" style="stop-color:#23b8c5;stop-opacity:1"/><stop offset="78%" style="stop-color:#d0dd2f;stop-opacity:1"/><stop offset="96%" style="stop-color:#ee7e7d;stop-opacity:1"/><stop offset="100%" style="stop-color:#ef797d;stop-opacity:1"/></linearGradient><linearGradient id="_Linear4" x1="0" y1="0" x2="1" y2="0" gradientUnits="userSpaceOnUse" gradientTransform="matrix(399.927,0,0,388.895,-139.481,400.615)"><stop offset="0%" style="stop-color:#ef797d;stop-opacity:1"/><stop offset="3%" style="stop-color:#ee7e7d;stop-opacity:1"/><stop offset="21%" style="stop-color:#d0dd2f;stop-opacity:1"/><stop offset="50%" style="stop-color:#23b8c5;stop-opacity:1"/><stop offset="65%" style="stop-color:#25b5a1;stop-opacity:1"/><stop offset="81%" style="stop-color:#36ae49;stop-opacity:1"/><stop offset="100%" style="stop-color:#36ae49;stop-opacity:1"/></linearGradient><linearGradient id="_Linear5" x1="0" y1="0" x2="1" y2="0" gradientUnits="userSpaceOnUse" gradientTransform="matrix(506.044,0,0,492.085,129.204,400.621)"><stop offset="0%" style="stop-color:#ef797d;stop-opacity:1"/><stop offset="3%" style="stop-color:#ee7e7d;stop-opacity:1"/><stop offset="21%" style="stop-color:#d0dd2f;stop-opacity:1"/><stop offset="50%" style="stop-color:#23b8c5;stop-opacity:1"/><stop offset="65%" style="stop-color:#25b5a1;stop-opacity:1"/><stop offset="81%" style="stop-color:#36ae49;stop-opacity:1"/><stop offset="100%" style="stop-color:#36ae49;stop-opacity:1"/></linearGradient><linearGradient id="_Linear6" x1="0" y1="0" x2="1" y2="0" gradientUnits="userSpaceOnUse" gradientTransform="matrix(130.847,0,0,127.237,199.69,415.87)"><stop offset="0%" style="stop-color:#36ae49;stop-opacity:1"/><stop offset="18%" style="stop-color:#36ae49;stop-opacity:1"/><stop offset="34%" style="stop-color:#25b5a1;stop-opacity:1"/><stop offset="50%" style="stop-color:#23b8c5;stop-opacity:1"/><stop offset="78%" style="stop-color:#d0dd2f;stop-opacity:1"/><stop offset="96%" style="stop-color:#ee7e7d;stop-opacity:1"/><stop offset="100%" style="stop-color:#ef797d;stop-opacity:1"/></linearGradient><linearGradient id="_Linear7" x1="0" y1="0" x2="1" y2="0" gradientUnits="userSpaceOnUse" gradientTransform="matrix(519.366,0,0,505.039,254.034,400.615)"><stop offset="0%" style="stop-color:#ef797d;stop-opacity:1"/><stop offset="3%" style="stop-color:#ee7e7d;stop-opacity:1"/><stop offset="21%" style="stop-color:#d0dd2f;stop-opacity:1"/><stop offset="50%" style="stop-color:#23b8c5;stop-opacity:1"/><stop offset="65%" style="stop-color:#25b5a1;stop-opacity:1"/><stop offset="81%" style="stop-color:#36ae49;stop-opacity:1"/><stop offset="100%" style="stop-color:#36ae49;stop-opacity:1"/></linearGradient><linearGradient id="_Linear8" x1="0" y1="0" x2="1" y2="0" gradientUnits="userSpaceOnUse" gradientTransform="matrix(1484.4,0,0,1642.86,-202.346,403.955)"><stop offset="0%" style="stop-color:#fff;stop-opacity:1"/><stop offset="9%" style="stop-color:#ee6d76;stop-opacity:1"/><stop offset="18%" style="stop-color:#f8de36;stop-opacity:1"/><stop offset="21%" style="stop-color:#eee812;stop-opacity:1"/><stop offset="37%" style="stop-color:#36ae49;stop-opacity:1"/><stop offset="78%" style="stop-color:#23b8c5;stop-opacity:1"/><stop offset="100%" style="stop-color:#23b8c5;stop-opacity:1"/></linearGradient></defs></svg>